<mxfile host="app.diagrams.net" agent="Mozilla/5.0 (Windows NT 10.0; Win64; x64) AppleWebKit/537.36 (KHTML, like Gecko) Chrome/129.0.0.0 Safari/537.36 Edg/129.0.0.0" version="24.7.16">
  <diagram name="第 1 页" id="cjkbtMk5di5gzWjSeYYp">
    <mxGraphModel dx="2066" dy="1115" grid="1" gridSize="10" guides="1" tooltips="1" connect="1" arrows="1" fold="1" page="1" pageScale="1" pageWidth="827" pageHeight="1169" math="0" shadow="0">
      <root>
        <mxCell id="0" />
        <mxCell id="1" parent="0" />
        <mxCell id="0baXX0BzV9R8ShSw8U21-29" value="" style="rounded=0;whiteSpace=wrap;html=1;strokeWidth=2;dashed=1;dashPattern=1 1;strokeColor=#FF0000;" vertex="1" parent="1">
          <mxGeometry x="470" y="520" width="260" height="200" as="geometry" />
        </mxCell>
        <mxCell id="0baXX0BzV9R8ShSw8U21-1" value="" style="endArrow=none;html=1;rounded=0;strokeWidth=2;dashed=1;" edge="1" parent="1">
          <mxGeometry width="50" height="50" relative="1" as="geometry">
            <mxPoint x="120" y="970" as="sourcePoint" />
            <mxPoint x="120" y="200" as="targetPoint" />
          </mxGeometry>
        </mxCell>
        <mxCell id="0baXX0BzV9R8ShSw8U21-2" value="" style="endArrow=none;html=1;rounded=0;dashed=1;strokeWidth=2;" edge="1" parent="1">
          <mxGeometry width="50" height="50" relative="1" as="geometry">
            <mxPoint x="380" y="970" as="sourcePoint" />
            <mxPoint x="380" y="200" as="targetPoint" />
          </mxGeometry>
        </mxCell>
        <mxCell id="0baXX0BzV9R8ShSw8U21-21" value="Srs提供的Callback 技术" style="edgeLabel;html=1;align=center;verticalAlign=middle;resizable=0;points=[];" vertex="1" connectable="0" parent="0baXX0BzV9R8ShSw8U21-2">
          <mxGeometry x="0.0909" y="-1" relative="1" as="geometry">
            <mxPoint as="offset" />
          </mxGeometry>
        </mxCell>
        <mxCell id="0baXX0BzV9R8ShSw8U21-3" value="" style="endArrow=none;html=1;rounded=0;strokeWidth=2;dashed=1;" edge="1" parent="1">
          <mxGeometry width="50" height="50" relative="1" as="geometry">
            <mxPoint x="650" y="970" as="sourcePoint" />
            <mxPoint x="650" y="200" as="targetPoint" />
          </mxGeometry>
        </mxCell>
        <mxCell id="0baXX0BzV9R8ShSw8U21-14" value="登录成功" style="edgeLabel;html=1;align=center;verticalAlign=middle;resizable=0;points=[];" vertex="1" connectable="0" parent="0baXX0BzV9R8ShSw8U21-3">
          <mxGeometry x="0.6234" y="-3" relative="1" as="geometry">
            <mxPoint as="offset" />
          </mxGeometry>
        </mxCell>
        <mxCell id="0baXX0BzV9R8ShSw8U21-24" value="Token鉴权" style="edgeLabel;html=1;align=center;verticalAlign=middle;resizable=0;points=[];" vertex="1" connectable="0" parent="0baXX0BzV9R8ShSw8U21-3">
          <mxGeometry x="-0.0701" y="1" relative="1" as="geometry">
            <mxPoint as="offset" />
          </mxGeometry>
        </mxCell>
        <mxCell id="0baXX0BzV9R8ShSw8U21-4" value="OBS推流端" style="rounded=1;whiteSpace=wrap;html=1;" vertex="1" parent="1">
          <mxGeometry x="60" y="160" width="120" height="60" as="geometry" />
        </mxCell>
        <mxCell id="0baXX0BzV9R8ShSw8U21-6" value="SRS 流媒体服务器" style="rounded=1;whiteSpace=wrap;html=1;" vertex="1" parent="1">
          <mxGeometry x="320" y="160" width="120" height="60" as="geometry" />
        </mxCell>
        <mxCell id="0baXX0BzV9R8ShSw8U21-7" value="业务后台服务器" style="rounded=1;whiteSpace=wrap;html=1;" vertex="1" parent="1">
          <mxGeometry x="570" y="160" width="120" height="60" as="geometry" />
        </mxCell>
        <mxCell id="0baXX0BzV9R8ShSw8U21-8" value="" style="endArrow=classic;html=1;rounded=0;" edge="1" parent="1">
          <mxGeometry width="50" height="50" relative="1" as="geometry">
            <mxPoint x="120" y="320" as="sourcePoint" />
            <mxPoint x="650" y="320" as="targetPoint" />
          </mxGeometry>
        </mxCell>
        <mxCell id="0baXX0BzV9R8ShSw8U21-10" value="username/passwd" style="edgeLabel;html=1;align=center;verticalAlign=middle;resizable=0;points=[];" vertex="1" connectable="0" parent="0baXX0BzV9R8ShSw8U21-8">
          <mxGeometry x="-0.5371" y="2" relative="1" as="geometry">
            <mxPoint y="-8" as="offset" />
          </mxGeometry>
        </mxCell>
        <mxCell id="0baXX0BzV9R8ShSw8U21-12" value="登录" style="edgeLabel;html=1;align=center;verticalAlign=middle;resizable=0;points=[];" vertex="1" connectable="0" parent="0baXX0BzV9R8ShSw8U21-8">
          <mxGeometry x="-0.8088" y="-2" relative="1" as="geometry">
            <mxPoint y="-12" as="offset" />
          </mxGeometry>
        </mxCell>
        <mxCell id="0baXX0BzV9R8ShSw8U21-9" value="" style="endArrow=classic;html=1;rounded=0;" edge="1" parent="1">
          <mxGeometry width="50" height="50" relative="1" as="geometry">
            <mxPoint x="650" y="370" as="sourcePoint" />
            <mxPoint x="120" y="370" as="targetPoint" />
          </mxGeometry>
        </mxCell>
        <mxCell id="0baXX0BzV9R8ShSw8U21-11" value="Token" style="edgeLabel;html=1;align=center;verticalAlign=middle;resizable=0;points=[];" vertex="1" connectable="0" parent="0baXX0BzV9R8ShSw8U21-9">
          <mxGeometry x="-0.4365" relative="1" as="geometry">
            <mxPoint y="-10" as="offset" />
          </mxGeometry>
        </mxCell>
        <mxCell id="0baXX0BzV9R8ShSw8U21-15" value="" style="endArrow=classic;html=1;rounded=0;" edge="1" parent="1">
          <mxGeometry width="50" height="50" relative="1" as="geometry">
            <mxPoint x="120" y="530" as="sourcePoint" />
            <mxPoint x="380" y="530" as="targetPoint" />
          </mxGeometry>
        </mxCell>
        <mxCell id="0baXX0BzV9R8ShSw8U21-16" value="开始拉流带上登录时候的Token" style="edgeLabel;html=1;align=center;verticalAlign=middle;resizable=0;points=[];" vertex="1" connectable="0" parent="0baXX0BzV9R8ShSw8U21-15">
          <mxGeometry x="0.0359" y="6" relative="1" as="geometry">
            <mxPoint x="5" y="-14" as="offset" />
          </mxGeometry>
        </mxCell>
        <mxCell id="0baXX0BzV9R8ShSw8U21-18" value="&lt;a href=&quot;https://github.com/ossrs/srs/wiki/v3_CN_DRM&quot;&gt;https://github.com/ossrs/srs/wiki/v3_CN_DRM&lt;/a&gt;" style="text;html=1;whiteSpace=wrap;overflow=hidden;rounded=0;align=left;" vertex="1" parent="1">
          <mxGeometry x="110" y="80" width="540" height="32" as="geometry" />
        </mxCell>
        <mxCell id="0baXX0BzV9R8ShSw8U21-20" value="" style="endArrow=classic;html=1;rounded=0;" edge="1" parent="1">
          <mxGeometry width="50" height="50" relative="1" as="geometry">
            <mxPoint x="380" y="580" as="sourcePoint" />
            <mxPoint x="650" y="580" as="targetPoint" />
          </mxGeometry>
        </mxCell>
        <mxCell id="0baXX0BzV9R8ShSw8U21-23" value="发送Token" style="edgeLabel;html=1;align=center;verticalAlign=middle;resizable=0;points=[];" vertex="1" connectable="0" parent="1">
          <mxGeometry x="540" y="560" as="geometry" />
        </mxCell>
        <mxCell id="0baXX0BzV9R8ShSw8U21-25" value="" style="endArrow=classic;html=1;rounded=0;" edge="1" parent="1">
          <mxGeometry width="50" height="50" relative="1" as="geometry">
            <mxPoint x="650" y="660" as="sourcePoint" />
            <mxPoint x="380" y="660" as="targetPoint" />
          </mxGeometry>
        </mxCell>
        <mxCell id="0baXX0BzV9R8ShSw8U21-26" value="鉴权成功" style="edgeLabel;html=1;align=center;verticalAlign=middle;resizable=0;points=[];" vertex="1" connectable="0" parent="0baXX0BzV9R8ShSw8U21-25">
          <mxGeometry x="-0.4173" relative="1" as="geometry">
            <mxPoint x="-1" y="-10" as="offset" />
          </mxGeometry>
        </mxCell>
        <mxCell id="0baXX0BzV9R8ShSw8U21-27" value="" style="endArrow=classic;html=1;rounded=0;" edge="1" parent="1">
          <mxGeometry width="50" height="50" relative="1" as="geometry">
            <mxPoint x="380" y="710" as="sourcePoint" />
            <mxPoint x="120" y="710" as="targetPoint" />
          </mxGeometry>
        </mxCell>
        <mxCell id="0baXX0BzV9R8ShSw8U21-28" value="拉流成功" style="edgeLabel;html=1;align=center;verticalAlign=middle;resizable=0;points=[];" vertex="1" connectable="0" parent="0baXX0BzV9R8ShSw8U21-27">
          <mxGeometry x="-0.0026" y="-4" relative="1" as="geometry">
            <mxPoint y="-6" as="offset" />
          </mxGeometry>
        </mxCell>
        <mxCell id="0baXX0BzV9R8ShSw8U21-33" value="&lt;b&gt;&lt;font color=&quot;#ff0000&quot;&gt;需要开发实现&lt;/font&gt;&lt;/b&gt;" style="text;html=1;align=center;verticalAlign=middle;whiteSpace=wrap;rounded=0;" vertex="1" parent="1">
          <mxGeometry x="700" y="670" width="60" height="30" as="geometry" />
        </mxCell>
      </root>
    </mxGraphModel>
  </diagram>
</mxfile>
